#!OML:ASF G:\ViconDB\ViconDB\414\test\team2\shane.ASF
:FULLY-SPECIFIED
:DEGREES
220
root 2.3599 16.6021 -0.994929 -9.20647 3.2729 -2.91775
lowerback 8.60818 -1.29228 0.0092769
upperback 5.69455 -1.71232 0.83654
thorax 1.0954 -0.87091 0.98419
lowerneck -10.7014 -1.89878 -9.64786
upperneck 40.5875 2.67192 -6.68731
head 16.6443 -1.28328 -0.826924
rclavicle 1.97915e-014 -6.36111e-015
rhumerus -40.3892 19.6454 -53.6229
rradius 113.339
rwrist 154.828
rhand -17.3472 8.11899
rfingers 7.12502
rthumb 8.90034 -21.6733
lclavicle 1.97915e-014 -6.36111e-015
lhumerus -43.0941 -30.79 98.5178
lradius 40.7577
lwrist -15.8771
lhand -37.2889 4.73683
lfingers 7.12502
lthumb -10.3534 34.462
rfemur -19.6406 -12.9549 17.3381
rtibia 44.8923
rfoot -20.6256 -0.201642
rtoes -13.8423
lfemur 17.9753 5.336 -10.0436
ltibia 16.0127
lfoot -27.5226 -10.4867
ltoes -9.15326
221
root 2.33593 16.6291 -0.787148 -8.81891 4.04367 -2.82195
lowerback 8.55567 -1.52097 -0.170012
upperback 5.5161 -2.02628 0.937386
thorax 0.954572 -1.03329 1.21314
lowerneck -10.8203 -1.99103 -9.85872
upperneck 39.3 2.34874 -6.38076
head 15.9693 -1.34369 -0.652815
rclavicle -2.45375e-014 -9.34288e-015
rhumerus -42.0855 19.5171 -53.7933
rradius 113.928
rwrist 154.565
rhand -17.36 8.30254
rfingers 7.12502
rthumb 8.88799 -21.4903
lclavicle -2.45375e-014 -9.34288e-015
lhumerus -43.3046 -30.5508 98.9331
lradius 40.6168
lwrist -16.4113
lhand -37.2781 4.90453
lfingers 7.12502
lthumb -10.3429 34.6302
rfemur -20.3181 -13.0296 17.0705
rtibia 42.0745
rfoot -20.346 0.392908
rtoes -13.3725
lfemur 19.871 5.14025 -9.97827
ltibia 12.3525
lfoot -26.2688 -10.9245
ltoes -9.50741
222
root 2.31504 16.6466 -0.580111 -8.44231 4.61849 -2.64673
lowerback 8.46022 -1.72828 -0.442494
upperback 5.39302 -2.31906 1.06093
thorax 0.902487 -1.18789 1.5137
lowerneck -10.963 -2.09383 -10.1997
upperneck 37.8587 2.03361 -6.05299
head 15.2604 -1.40901 -0.450869
rclavicle 6.44808e-015 -8.69683e-015
rhumerus -43.6358 19.198 -53.8388
rradius 114.755
rwrist 153.851
rhand -17.7147 8.86883
rfingers 7.12502
rthumb 8.54571 -20.9382
lclavicle 6.44808e-015 -8.69683e-015
lhumerus -43.1097 -29.5094 99.1058
lradius 40.5628
lwrist -16.0218
lhand -36.8054 4.75707
lfingers 7.12502
lthumb -9.88693 34.5049
rfemur -20.9656 -13.0523 16.7577
rtibia 39.5579
rfoot -20.292 0.704416
rtoes -15.858
lfemur 22.4918 4.46455 -10.1474
ltibia 7.21446
lfoot -23.8255 -11.3541
ltoes -9.83926
223
root 2.28411 16.6625 -0.375342 -8.16997 5.32255 -2.62459
lowerback 8.44599 -1.93423 -0.669989
upperback 5.30421 -2.6065 1.22507
thorax 0.845566 -1.339 1.83246
lowerneck -10.8736 -2.17033 -10.5003
upperneck 36.1971 1.64954 -5.5825
head 14.4259 -1.46088 -0.208448
rclavicle 3.51523e-014 -5.05658e-015
rhumerus -45.2605 18.7878 -53.7576
rradius 115.822
rwrist 153.817
rhand -17.2532 8.71697
rfingers 7.12502
rthumb 8.99102 -21.0714
lclavicle 3.51523e-014 -5.05658e-015
lhumerus -43.0723 -29.0807 99.3524
lradius 40.4932
lwrist -15.8605
lhand -36.6249 4.38894
lfingers 7.12502
lthumb -9.71273 34.145
rfemur -21.4295 -12.9276 16.4875
rtibia 37.1356
rfoot -20.3449 1.02674
rtoes -15.7466
lfemur 26.0772 3.60683 -10.1618
ltibia 6.36111e-015
lfoot -20.1283 -12.0236
ltoes -9.14475
224
root 2.26566 16.6604 -0.172192 -7.97544 6.09116 -2.66104
lowerback 8.40736 -2.207 -0.583782
upperback 5.35712 -2.96235 1.34911
thorax 0.937693 -1.51779 1.93468
lowerneck -11.014 -2.27484 -10.7043
upperneck 34.4515 1.28225 -5.22015
head 13.6534 -1.5072 -0.0377079
rclavicle -6.55368e-016 -1.81143e-014
rhumerus -46.4398 17.788 -53.3481
rradius 117.084
rwrist 153.232
rhand -18.0876 8.33249
rfingers 7.12502
rthumb 8.18576 -21.4889
lclavicle -6.55368e-016 -1.81143e-014
lhumerus -42.8985 -28.7137 99.5046
lradius 40.187
lwrist -16.8144
lhand -36.8082 4.43991
lfingers 7.12502
lthumb -9.88962 34.1876
rfemur -21.7718 -12.7506 16.1557
rtibia 35.0552
rfoot -21.0903 1.0111
rtoes -16.2388
lfemur 26.4782 2.69694 -10.181
ltibia -2.8625e-014
lfoot -20.6372 -11.7305
ltoes -9.44494
225
root 2.2353 16.6461 0.0313772 -7.81479 6.77218 -2.71993
lowerback 8.41233 -2.43149 -0.648919
upperback 5.43619 -3.26462 1.51663
thorax 1.04325 -1.67469 2.16304
lowerneck -11.1263 -2.36576 -10.8073
upperneck 32.6846 0.950698 -4.95581
head 12.906 -1.53798 0.0733025
rclavicle -1.27968e-015 -2.18166e-014
rhumerus -47.5097 16.882 -52.7271
rradius 118.535
rwrist 152.426
rhand -18.5693 7.35516
rfingers 7.12502
rthumb 7.72088 -22.4839
lclavicle -1.27968e-015 -2.18166e-014
lhumerus -42.767 -28.6673 99.8968
lradius 40.6627
lwrist -14.6375
lhand -36.3067 4.47334
lfingers 7.12502
lthumb -9.40571 34.2435
rfemur -22.1548 -12.6385 15.8834
rtibia 33.3893
rfoot -21.8568 0.784417
rtoes -16.1245
lfemur 26.891 1.83987 -10.101
ltibia -6.36111e-015
lfoot -21.0566 -11.5594
ltoes -9.58964
226
root 2.21173 16.6287 0.228767 -7.64698 7.55032 -2.7762
lowerback 8.46484 -2.66548 -0.594869
upperback 5.47867 -3.5708 1.75419
thorax 1.08491 -1.83105 2.40046
lowerneck -11.228 -2.48325 -11.2519
upperneck 30.9828 0.608097 -4.45532
head 12.2227 -1.58878 0.320899
rclavicle -3.23025e-015 5.86415e-015
rhumerus -48.3487 15.5862 -51.7586
rradius 120.044
rwrist 152.07
rhand -19.4479 6.11346
rfingers 7.12502
rthumb 6.87275 -23.755
lclavicle -3.23025e-015 5.86415e-015
lhumerus -42.6966 -28.5671 100.35
lradius 40.4949
lwrist -15.2945
lhand -36.4368 4.51618
lfingers 7.12502
lthumb -9.53125 34.2806
rfemur -22.5648 -12.3868 15.484
rtibia 32.1973
rfoot -22.749 0.509272
rtoes -15.3145
lfemur 27.2529 0.91715 -10.0988
ltibia -2.22639e-014
lfoot -21.5104 -11.2264
ltoes -9.95883
227
root 2.18076 16.6031 0.429329 -7.52822 8.31608 -2.75432
lowerback 8.51001 -2.97529 -0.759189
upperback 5.50787 -3.99279 1.89849
thorax 1.1335 -2.04995 2.67141
lowerneck -11.1255 -2.44357 -11.431
upperneck 29.1929 0.431916 -4.06304
head 11.4823 -1.54276 0.49922
rclavicle 6.18469e-014 -4.94974e-014
rhumerus -48.8434 14.416 -50.9394
rradius 121.643
rwrist 151.594
rhand -19.7387 5.49239
rfingers 7.12502
rthumb 6.5921 -24.385
lclavicle 6.18469e-014 -4.94974e-014
lhumerus -42.6968 -28.1497 100.639
lradius 40.685
lwrist -14.611
lhand -36.2529 4.55009
lfingers 7.12502
lthumb -9.3538 34.3226
rfemur -22.9219 -12.7808 15.193
rtibia 31.4275
rfoot -23.2503 -0.157556
rtoes -15.1005
lfemur 27.6683 -0.0140605 -10.1179
ltibia 3.49861e-014
lfoot -21.9184 -10.9982
ltoes -10.4602
228
root 2.14641 16.5626 0.625451 -7.42378 9.12275 -2.69963
lowerback 8.61147 -3.20546 -0.772376
upperback 5.55701 -4.29795 1.97686
thorax 1.15309 -2.20482 2.78489
lowerneck -10.9806 -2.51753 -11.3832
upperneck 27.4157 0.110878 -3.88197
head 10.7728 -1.56532 0.537085
rclavicle 2.49226e-014 0
rhumerus -49.199 12.8934 -49.9629
rradius 123.105
rwrist 150.256
rhand -19.8534 4.88702
rfingers 7.12502
rthumb 6.48135 -24.9938
lclavicle 2.49226e-014 0
lhumerus -42.7313 -28.339 100.884
lradius 40.7184
lwrist -14.6673
lhand -36.1925 4.44503
lfingers 7.12502
lthumb -9.29558 34.2201
rfemur -23.2287 -13.1746 14.8915
rtibia 31.0299
rfoot -23.6282 -1.22744
rtoes -15.4771
lfemur 28.0916 -0.971441 -10.2037
ltibia 6.04305e-014
lfoot -22.3912 -10.5368
ltoes -11.2869
229
root 2.1122 16.5253 0.820845 -7.37802 9.89467 -2.8534
lowerback 9.04818 -3.46146 -0.726492
upperback 5.43201 -4.62774 2.22307
thorax 0.820654 -2.36861 3.0713
lowerneck -10.8786 -2.44883 -11.7222
upperneck 26.0029 -0.00126818 -3.25524
head 10.2241 -1.50325 0.816106
rclavicle -1.61016e-014 0
rhumerus -49.162 11.4993 -48.7962
rradius 124.776
rwrist 149.616
rhand -19.464 5.01166
rfingers 7.12502
rthumb 6.85728 -24.8573
lclavicle -1.61016e-014 0
lhumerus -42.797 -27.8808 101.208
lradius 40.5195
lwrist -14.9532
lhand -36.2754 4.26013
lfingers 7.12502
lthumb -9.37554 34.0316
rfemur -23.3538 -13.83 14.8564
rtibia 30.7331
rfoot -23.8877 -2.00112
rtoes -15.3618
lfemur 28.545 -1.94701 -10.0282
ltibia -3.18055e-014
lfoot -22.7779 -10.182
ltoes -12.3511
